<svg width="35" height="37" viewBox="0 0 35 37" fill="none" xmlns="http://www.w3.org/2000/svg">
<path d="M31.3506 10.2473C30.8663 9.12586 30.1679 8.10963 29.2946 7.25549C28.4207 6.39881 27.3903 5.71801 26.2595 5.25012C25.0869 4.76303 23.8292 4.5137 22.5595 4.51663C20.7781 4.51663 19.0401 5.00442 17.5298 5.92581C17.1685 6.14622 16.8252 6.38831 16.5 6.65208C16.1748 6.38831 15.8315 6.14622 15.4702 5.92581C13.9599 5.00442 12.2219 4.51663 10.4405 4.51663C9.15781 4.51663 7.91484 4.76233 6.74053 5.25012C5.60596 5.71985 4.5834 6.39553 3.70537 7.25549C2.83095 8.10867 2.13243 9.12514 1.64941 10.2473C1.14717 11.4144 0.890625 12.6537 0.890625 13.9292C0.890625 15.1324 1.13633 16.3863 1.62412 17.6617C2.03242 18.7277 2.61777 19.8333 3.36572 20.9498C4.55088 22.7167 6.18047 24.5595 8.20391 26.4276C11.557 29.5241 14.8776 31.6632 15.0186 31.7499L15.8749 32.2991C16.2543 32.5412 16.7421 32.5412 17.1215 32.2991L17.9778 31.7499C18.1188 31.6596 21.4357 29.5241 24.7925 26.4276C26.8159 24.5595 28.4455 22.7167 29.6307 20.9498C30.3786 19.8333 30.9676 18.7277 31.3723 17.6617C31.8601 16.3863 32.1058 15.1324 32.1058 13.9292C32.1094 12.6537 31.8528 11.4144 31.3506 10.2473ZM16.5 29.441C16.5 29.441 3.63672 21.1991 3.63672 13.9292C3.63672 10.2473 6.68271 7.26272 10.4405 7.26272C13.0818 7.26272 15.3727 8.73694 16.5 10.8905C17.6273 8.73694 19.9182 7.26272 22.5595 7.26272C26.3173 7.26272 29.3633 10.2473 29.3633 13.9292C29.3633 21.1991 16.5 29.441 16.5 29.441Z" fill="#656565" fill-opacity="0.84"/>
</svg>
