<svg xmlns="http://www.w3.org/2000/svg" aria-hidden="true" overflow="hidden" style="position:absolute;width:0;height:0">
  <defs>
    <symbol id="icon-favorite" viewBox="0 0 32 32">
      <path d="M28.844 8.863a8.136 8.136 0 0 0-1.778-2.588 8.25 8.25 0 0 0-2.625-1.734 8.288 8.288 0 0 0-3.2-.634A8.344 8.344 0 0 0 16 5.754a8.344 8.344 0 0 0-5.241-1.847 8.31 8.31 0 0 0-5.825 2.368A8.082 8.082 0 0 0 2.5 12.047c0 1.041.212 2.125.634 3.228.353.922.859 1.878 1.506 2.844 1.025 1.528 2.434 3.122 4.184 4.737 2.9 2.678 5.772 4.528 5.894 4.603l.741.475c.328.209.75.209 1.078 0l.741-.475c.122-.078 2.991-1.925 5.894-4.603 1.75-1.616 3.159-3.209 4.184-4.737.647-.966 1.156-1.922 1.506-2.844.422-1.103.634-2.188.634-3.228a7.962 7.962 0 0 0-.653-3.184zM16 25.463S4.875 18.335 4.875 12.047c0-3.184 2.634-5.766 5.884-5.766A5.901 5.901 0 0 1 16 9.419a5.902 5.902 0 0 1 5.241-3.138c3.25 0 5.884 2.581 5.884 5.766C27.125 18.334 16 25.463 16 25.463z"/>
    </symbol>
    <symbol id="icon-cart" viewBox="0 0 32 32">
      <path d="M22 10v3a.997.997 0 0 1-1 1h-1v-4h-8v4h-1a.997.997 0 0 1-1-1v-3H6v18h20V10h-4zM10 8a5.996 5.996 0 0 1 6-6 5.996 5.996 0 0 1 6 6h5a.997.997 0 0 1 1 1v20a.997.997 0 0 1-1 1H5a.997.997 0 0 1-1-1V9a.997.997 0 0 1 1-1h5zm2 0h8a4.003 4.003 0 0 0-4-4 4.003 4.003 0 0 0-4 4z"/>
      <path d="M6 22h20v2H6v-2z"/>
    </symbol>
    <symbol id="icon-location" viewBox="0 0 32 32">
      <path d="M16 28a39.756 39.756 0 0 1-4.667-4.708c-2.133-2.548-4.667-6.343-4.667-9.959a9.33 9.33 0 0 1 5.762-8.627A9.338 9.338 0 0 1 24.63 9.759a9.266 9.266 0 0 1 .704 3.574c0 3.616-2.533 7.411-4.667 9.959A39.756 39.756 0 0 1 16 28zm0-18.667a4.003 4.003 0 0 0-4 4 4.003 4.003 0 0 0 4 4 4.003 4.003 0 0 0 4-4 4.003 4.003 0 0 0-4-4z"/>
    </symbol>
    <symbol id="icon-search" viewBox="0 0 32 32">
      <path d="m28.425 26.703-8.116-8.116a9.294 9.294 0 0 0 1.941-5.713c0-2.506-.978-4.856-2.747-6.628s-4.125-2.747-6.628-2.747-4.859.978-6.628 2.747A9.3 9.3 0 0 0 3.5 12.874c0 2.503.978 4.859 2.747 6.628a9.3 9.3 0 0 0 6.628 2.747 9.292 9.292 0 0 0 5.709-1.938l8.116 8.113a.259.259 0 0 0 .181.076.253.253 0 0 0 .181-.076l1.362-1.359a.259.259 0 0 0 .076-.181.253.253 0 0 0-.076-.181zm-10.6-8.878c-1.325 1.322-3.081 2.05-4.95 2.05s-3.625-.728-4.95-2.05c-1.322-1.325-2.05-3.081-2.05-4.95s.728-3.628 2.05-4.95c1.325-1.322 3.081-2.05 4.95-2.05s3.628.725 4.95 2.05c1.322 1.325 2.05 3.081 2.05 4.95s-.728 3.628-2.05 4.95z"/>
    </symbol>
    <symbol id="icon-user" viewBox="0 0 29 32">
      <path d="M14.667 16c1.459 0 2.858-.632 3.889-1.757s1.611-2.651 1.611-4.243-.579-3.117-1.611-4.243C17.525 4.632 16.126 4 14.667 4s-2.858.632-3.889 1.757C9.747 6.882 9.167 8.408 9.167 10s.579 3.117 1.611 4.243C11.809 15.368 13.208 16 14.667 16zm3.666-6c0 1.061-.386 2.078-1.074 2.828S15.639 14 14.666 14s-1.905-.421-2.593-1.172c-.688-.75-1.074-1.768-1.074-2.828s.386-2.078 1.074-2.828C12.761 6.422 13.693 6 14.666 6s1.905.421 2.593 1.172c.688.75 1.074 1.768 1.074 2.828zm7.334 16c0 2-1.833 2-1.833 2H5.501s-1.833 0-1.833-2 1.833-8 11-8 11 6 11 8zm-1.834-.008c-.002-.492-.282-1.972-1.525-3.328C21.113 21.36 18.863 20 14.667 20c-4.198 0-6.446 1.36-7.641 2.664-1.243 1.356-1.522 2.836-1.525 3.328h18.333z"/>
    </symbol>
    <symbol id="icon-instagram" viewBox="0 0 32 32">
      <path d="M9.953 1.422c1.564-.072 2.063-.088 6.047-.088s4.483.017 6.045.088c1.563.071 2.629.32 3.563.681a7.218 7.218 0 0 1 2.597 1.693 7.158 7.158 0 0 1 1.691 2.596c.363.933.611 2 .683 3.56.072 1.567.088 2.065.088 6.048 0 3.984-.017 4.483-.088 6.047-.071 1.56-.32 2.627-.683 3.56a7.19 7.19 0 0 1-1.691 2.599 7.187 7.187 0 0 1-2.597 1.691c-.933.363-2 .611-3.56.683-1.565.072-2.064.088-6.048.088s-4.483-.017-6.047-.088c-1.56-.071-2.627-.32-3.56-.683a7.19 7.19 0 0 1-2.599-1.691 7.185 7.185 0 0 1-1.692-2.597c-.361-.933-.609-2-.681-3.56-.072-1.567-.088-2.065-.088-6.048 0-3.984.017-4.483.088-6.045s.32-2.629.681-3.563a7.192 7.192 0 0 1 1.693-2.597 7.195 7.195 0 0 1 2.596-1.692c.933-.361 2-.609 3.56-.681h.001zm11.973 2.64c-1.547-.071-2.011-.085-5.927-.085s-4.38.015-5.927.085c-1.431.065-2.207.304-2.724.505a4.57 4.57 0 0 0-1.687 1.096A4.543 4.543 0 0 0 4.565 7.35c-.201.517-.44 1.293-.505 2.724-.071 1.547-.085 2.011-.085 5.927s.015 4.38.085 5.927c.065 1.431.304 2.207.505 2.724a4.56 4.56 0 0 0 1.096 1.687 4.551 4.551 0 0 0 1.687 1.096c.517.201 1.293.44 2.724.505 1.547.071 2.009.085 5.927.085s4.38-.015 5.927-.085c1.431-.065 2.207-.304 2.724-.505a4.57 4.57 0 0 0 1.687-1.096 4.551 4.551 0 0 0 1.096-1.687c.201-.517.44-1.293.505-2.724.071-1.547.085-2.011.085-5.927s-.015-4.38-.085-5.927c-.065-1.431-.304-2.207-.505-2.724a4.57 4.57 0 0 0-1.096-1.687 4.543 4.543 0 0 0-1.687-1.096c-.517-.201-1.293-.44-2.724-.505zm-7.8 16.46a4.89 4.89 0 0 0 5.948-1.799 4.9 4.9 0 0 0-8.144-5.441 4.898 4.898 0 0 0 .441 6.004 4.889 4.889 0 0 0 1.752 1.235zm-3.458-9.852a7.538 7.538 0 1 1 10.66 10.661 7.538 7.538 0 0 1-10.66-10.661zM25.21 9.584a1.785 1.785 0 0 0-.553-2.948 1.786 1.786 0 0 0-1.967.428 1.786 1.786 0 0 0 .036 2.484 1.784 1.784 0 0 0 2.484.036z"/>
    </symbol>
    <symbol id="icon-twitter" viewBox="0 0 32 32">
      <path d="M31.525 6.583a12.42 12.42 0 0 1-3.567.977 6.23 6.23 0 0 0 2.731-3.437 12.4 12.4 0 0 1-3.944 1.507 6.212 6.212 0 0 0-10.197 1.689 6.214 6.214 0 0 0-.387 3.978A17.636 17.636 0 0 1 3.359 4.806a6.213 6.213 0 0 0-.84 3.123A6.208 6.208 0 0 0 5.282 13.1a6.194 6.194 0 0 1-2.813-.777v.08a6.218 6.218 0 0 0 4.982 6.091 6.255 6.255 0 0 1-2.805.107 6.212 6.212 0 0 0 5.803 4.311 12.467 12.467 0 0 1-7.715 2.66c-.495 0-.991-.029-1.483-.087a17.568 17.568 0 0 0 9.52 2.791c11.427 0 17.673-9.464 17.673-17.672 0-.267-.007-.536-.019-.803a12.63 12.63 0 0 0 3.097-3.213l.003-.004z"/>
    </symbol>
    <symbol id="icon-youtube" viewBox="0 0 30 32">
      <path d="M29.491 8.676a3.77 3.77 0 0 0-2.64-2.682c-2.357-.66-11.799-.66-11.799-.66a90.493 90.493 0 0 0-11.784.627A3.917 3.917 0 0 0 .613 8.675 41.117 41.117 0 0 0 .001 16c-.015 2.455.19 4.907.612 7.325a3.814 3.814 0 0 0 2.656 2.683c2.388.659 11.784.659 11.784.659a90.723 90.723 0 0 0 11.799-.627 3.767 3.767 0 0 0 2.639-2.682 40.14 40.14 0 0 0 .629-7.327 37.608 37.608 0 0 0-.627-7.356v.001zM12.05 20.565v-9.129l7.856 4.565-7.856 4.564z"/>
    </symbol>
    <symbol id="icon-facebook" viewBox="0 0 32 32">
      <path d="M16.002 2.669C8.639 2.669 2.67 8.638 2.67 16.001c0 6.653 4.875 12.168 11.249 13.172v-9.317h-3.387v-3.855h3.387v-2.937c0-3.344 1.991-5.188 5.035-5.188 1.459 0 2.987.26 2.987.26v3.279h-1.685c-1.653 0-2.171 1.029-2.171 2.084v2.5h3.695l-.591 3.855h-3.104v9.317c6.375-.999 11.249-6.515 11.249-13.169 0-7.363-5.969-13.332-13.332-13.332z"/>
    </symbol>
    <symbol id="icon-arrow" viewBox="0 0 32 32">
      <path d="M23.053 7.614a1.323 1.323 0 0 0-1.449-.289 1.323 1.323 0 0 0-.431.289L16 12.774l-5.187-5.173a1.336 1.336 0 0 0-.94-.389 1.328 1.328 0 0 0-.94 2.269l6.12 6.12c.52.52 1.36.52 1.88 0l6.12-6.12a1.316 1.316 0 0 0 .289-1.44 1.31 1.31 0 0 0-.289-.428z"/>
      <path d="M23.053 16.4a1.323 1.323 0 0 0-1.449-.289 1.323 1.323 0 0 0-.431.289L16 21.56l-5.173-5.173a1.329 1.329 0 0 0-1.88 1.88l6.12 6.12c.52.52 1.36.52 1.88 0l6.12-6.12a1.32 1.32 0 0 0-.014-1.867z"/>
    </symbol>
    <symbol id="icon-close" viewBox="0 0 32 32">
      <path d="M25.35 24.65a.478.478 0 0 1 .148.35.496.496 0 0 1-.308.46.496.496 0 0 1-.54-.11L16 16.713 7.35 25.35a.492.492 0 0 1-.54.11.477.477 0 0 1-.16-.11.503.503 0 0 1-.149-.35.479.479 0 0 1 .149-.35L15.287 16 6.65 7.35a.503.503 0 0 1 .046-.653.497.497 0 0 1 .653-.046l8.65 8.637 8.65-8.637a.5.5 0 1 1 .7.7l-8.637 8.65 8.637 8.65z"/>
    </symbol>
    <symbol id="icon-person" viewBox="0 0 32 32">
      <path d="M16 16a5.996 5.996 0 0 0 6-6 6.002 6.002 0 0 0-10.243-4.243A6 6 0 0 0 16 16zm4-6a4.003 4.003 0 0 1-4 4 4.003 4.003 0 0 1-4-4 4.003 4.003 0 0 1 4-4 4.003 4.003 0 0 1 4 4zm8 16c0 2-2 2-2 2H6s-2 0-2-2 2-8 12-8 12 6 12 8zm-2-.008c-.002-.492-.308-1.972-1.664-3.328C23.032 21.36 20.578 20 16 20c-4.58 0-7.032 1.36-8.336 2.664C6.308 24.02 6.004 25.5 6 25.992h20z"/>
    </symbol>
    <symbol id="icon-heart" viewBox="0 0 33 32">
      <path d="m16.666 5.496-1.494-1.474C11.666.562 5.237 1.756 2.916 6.106c-1.09 2.046-1.335 5 .654 8.77 1.917 3.63 5.904 7.978 13.096 12.714 7.192-4.736 11.177-9.084 13.096-12.714 1.99-3.772 1.746-6.724.654-8.77C28.095 1.756 21.666.56 18.16 4.02l-1.494 1.476zm0 24.504C-15.278 9.736 6.831-6.08 16.299 2.286c.125.11.248.224.367.342.118-.118.24-.231.367-.34C26.5-6.084 48.61 9.734 16.666 30z"/>
    </symbol>
    <symbol id="icon-burger" viewBox="0 0 39 32">
      <path d="M34.528 5.001h-29.945c-0.167 0-0.306 0.112-0.306 0.249v2c0 0.137 0.139 0.249 0.306 0.249h29.945c0.167 0 0.306-0.112 0.306-0.249v-2c0-0.137-0.139-0.249-0.306-0.249zM34.528 24.5h-29.945c-0.167 0-0.306 0.112-0.306 0.249v2.002c0 0.137 0.139 0.249 0.306 0.249h29.945c0.167 0 0.306-0.112 0.306-0.249v-2c0-0.139-0.139-0.249-0.306-0.249zM34.528 14.75h-29.945c-0.167 0-0.306 0.112-0.306 0.249v2.002c0 0.137 0.139 0.249 0.306 0.249h29.945c0.167 0 0.306-0.112 0.306-0.249v-2.002c0-0.137-0.139-0.249-0.306-0.249z"></path>
    </symbol>
    <symbol id="icon-romb" viewBox="0 0 32 32">
      <path d="M16.010 29.661l-14.515-14.486 14.515-14.515 14.486 14.515-14.486 14.486zM16.010 27.040l11.862-11.866-11.862-11.894-11.866 11.894 11.866 11.866z"></path>
    </symbol>
    <symbol id="icon-shipping" viewBox="0 0 32 32">
      <path d="M16.372 2.226c-0.11-0.045-0.238-0.072-0.372-0.072s-0.262 0.026-0.379 0.074l0.007-0.002-11.936 4.774 4.808 1.922 12.308-4.922-4.436-1.774zM23.5 5.078l-12.308 4.922 4.808 1.922 12.308-4.922-4.808-1.922zM30 8.478l-13 5.2v15.844l13-5.2v-15.844zM15 29.523v-15.848l-13-5.197v15.846l13 5.2zM14.886 0.368c0.33-0.136 0.712-0.214 1.114-0.214s0.784 0.079 1.134 0.222l-0.020-0.007 14.258 5.704c0.371 0.152 0.628 0.51 0.628 0.928v0 17.324c-0 0.837-0.515 1.553-1.244 1.851l-0.013 0.005-14.37 5.748c-0.11 0.045-0.238 0.072-0.372 0.072s-0.262-0.026-0.379-0.074l0.007 0.002-14.368-5.748c-0.744-0.302-1.259-1.019-1.26-1.856v-17.324c0-0.418 0.257-0.776 0.621-0.926l0.007-0.002 14.258-5.704z"></path>
    </symbol>
    <symbol id="icon-refunds" viewBox="0 0 58 32">
      <path d="M54.087 0.403h-49.739c-0.888 0-1.739 0.327-2.367 0.913-0.629 0.584-0.981 1.377-0.981 2.205v24.959c0 0.826 0.352 1.621 0.981 2.205 0.626 0.584 1.479 0.914 2.367 0.914h49.739c0.005 0 0.012 0 0.018 0 0.907 0 1.733-0.347 2.353-0.916l-0.002 0.002c0.626-0.584 0.979-1.377 0.979-2.205v-24.96c0-0.826-0.352-1.621-0.979-2.205-0.617-0.567-1.443-0.914-2.35-0.914-0.006 0-0.013 0-0.019 0h0.001zM18.289 28.925l-14.419-11.745v-2.362l14.419-11.743h21.857l14.419 11.743v2.362l-14.419 11.743h-21.857zM54.567 3.52v7.755l-10.045-8.2h9.565c0.127 0 0.249 0.047 0.338 0.131s0.139 0.196 0.139 0.314zM4.349 3.075h9.564l-10.044 8.202v-7.757c0.001-0.124 0.054-0.236 0.139-0.314l0-0c0.088-0.081 0.206-0.131 0.336-0.131 0.001 0 0.003 0 0.004 0h-0zM3.871 28.477v-7.755l10.042 8.203h-9.565c-0.001 0-0.001 0-0.002 0-0.13 0-0.248-0.050-0.336-0.131l0 0c-0.085-0.078-0.138-0.19-0.139-0.314v-0zM54.088 28.922h-9.567l10.044-8.2v7.755c-0.001 0.124-0.054 0.236-0.139 0.314l-0 0c-0.088 0.081-0.206 0.131-0.336 0.131-0.001 0-0.003 0-0.004 0h0zM29.217 7.533c-0.006 0-0.014-0-0.022-0-1.861 0-3.598 0.531-5.068 1.451l0.040-0.023c-1.465 0.911-2.615 2.206-3.324 3.746l-0.022 0.054c-0.437 0.952-0.692 2.066-0.692 3.239 0 0.585 0.063 1.156 0.184 1.705l-0.010-0.052c0.386 1.727 1.266 3.208 2.482 4.33l0.006 0.005c1.254 1.16 2.838 1.981 4.595 2.309l0.058 0.009c0.533 0.104 1.145 0.163 1.772 0.163 1.251 0 2.446-0.236 3.544-0.667l-0.066 0.023c1.671-0.646 3.056-1.722 4.060-3.094l0.018-0.025c0.953-1.303 1.527-2.936 1.532-4.703v-0.001c0-2.246-0.957-4.399-2.662-5.987-1.704-1.589-4.015-2.481-6.425-2.481zM29.217 21.793c-0.004 0-0.009 0-0.015 0-1.273 0-2.462-0.364-3.467-0.993l0.027 0.016c-1.003-0.623-1.789-1.509-2.275-2.562l-0.015-0.037c-0.299-0.651-0.473-1.413-0.473-2.215 0-0.401 0.043-0.792 0.126-1.168l-0.007 0.036c0.264-1.182 0.866-2.195 1.698-2.963l0.004-0.004c0.858-0.794 1.942-1.356 3.144-1.58l0.039-0.006c0.364-0.071 0.783-0.112 1.212-0.112 0.856 0 1.674 0.162 2.425 0.457l-0.045-0.016c1.144 0.442 2.091 1.178 2.779 2.117l0.012 0.017c0.682 0.952 1.048 2.073 1.048 3.218-0.007 1.535-0.664 3.005-1.828 4.090-1.149 1.056-2.688 1.703-4.378 1.703-0.004 0-0.008 0-0.012 0h0.001z"></path>
    </symbol>
    <symbol id="icon-ring" viewBox="0 0 26 32">
      <path d="M25.427 19.834c0 3.028-1.312 5.932-3.648 8.073s-5.503 3.344-8.806 3.344c-3.304 0-6.471-1.202-8.806-3.344s-3.648-5.045-3.648-8.073c0.001-2.224 0.712-4.4 2.045-6.259s3.229-3.321 5.456-4.206l0.487 0.348 2.142 1.525c-2.097 0.475-3.961 1.578-5.295 3.135s-2.062 3.478-2.067 5.457c0 4.897 4.345 8.88 9.687 8.88s9.687-3.983 9.687-8.88c-0.006-1.98-0.733-3.901-2.067-5.457s-3.197-2.661-5.295-3.135l2.629-1.872c2.227 0.885 4.123 2.346 5.456 4.206s2.043 4.035 2.045 6.259zM12.973 9.687l6.919-4.934-2.768-3.946h-8.303l-2.768 3.946 6.919 4.934z"></path>
    </symbol>
  </defs>
</svg>